<?xml version="1.0" encoding="utf-8"?>
<!-- Generated by Mocodo 4.2.4 -->
<svg width="539" height="1137" viewBox="0 0 539 1137" xmlns="http://www.w3.org/2000/svg">
<rect x="0" y="0" width="539" height="1137" fill="#ffffbf" stroke="none" stroke-width="0"/>

<!-- Association DESCRIBES -->
<g class="page_0_da412b6b diagram_page" visibility="visible">
	<line x1="319" y1="144" x2="188" y2="43" stroke="#f46d43" stroke-width="2"/>
	<line x1="319" y1="43" x2="188" y2="43" stroke="#f46d43" stroke-width="2"/>
	<g>
		<path d="M217 18 a14 14 90 0 1 14 14 V43 h-86 V32 a14 14 90 0 1 14 -14" fill="#fdae61" stroke="#fdae61" stroke-width="0"/>
		<path d="M231 43 v11 a14 14 90 0 1 -14 14 H159 a14 14 90 0 1 -14 -14 V43 H86" fill="#fee08b" stroke="#fee08b" stroke-width="0"/>
		<rect x="145" y="18" width="86" height="50" fill="none" rx="14" stroke="#f46d43" stroke-width="2"/>
		<line x1="145" y1="43" x2="231" y2="43" stroke="#f46d43" stroke-width="1"/>
		<text x="152" y="35.75" fill="#000000" font-family="Verdana" font-size="12">DESCRIBES</text>
	</g>
	<text x="254" y="125.14" fill="#1a9850" font-family="Verdana" font-size="12">1,1</text>
	<text x="236" y="60" fill="#1a9850" font-family="Verdana" font-size="12">0,N</text>
</g>

<!-- Association OCCURS -->
<g class="page_0_da412b6b diagram_page" visibility="visible">
	<line x1="61" y1="607" x2="188" y2="144" stroke="#f46d43" stroke-width="2"/>
	<line x1="319" y1="144" x2="188" y2="144" stroke="#f46d43" stroke-width="2"/>
	<g>
		<path d="M208 119 a14 14 90 0 1 14 14 V144 h-68 V133 a14 14 90 0 1 14 -14" fill="#fdae61" stroke="#fdae61" stroke-width="0"/>
		<path d="M222 144 v11 a14 14 90 0 1 -14 14 H168 a14 14 90 0 1 -14 -14 V144 H68" fill="#fee08b" stroke="#fee08b" stroke-width="0"/>
		<rect x="154" y="119" width="68" height="50" fill="none" rx="14" stroke="#f46d43" stroke-width="2"/>
		<line x1="154" y1="144" x2="222" y2="144" stroke="#f46d43" stroke-width="1"/>
		<text x="162" y="136.75" fill="#000000" font-family="Verdana" font-size="12">OCCURS</text>
	</g>
	<text x="57.97" y="523" fill="#1a9850" font-family="Verdana" font-size="12" onmouseover="show_da412b6b(evt,'happening')" onmouseout="hide_da412b6b(evt)" style="cursor: pointer;">1,1</text>
	<text x="253" y="161" fill="#1a9850" font-family="Verdana" font-size="12">0,N</text>
</g>

<!-- Association WRITES -->
<g class="page_0_da412b6b diagram_page" visibility="visible">
	<line x1="319" y1="607" x2="188" y2="219" stroke="#f46d43" stroke-width="2"/>
	<line x1="188" y1="337" x2="188" y2="219" stroke="#f46d43" stroke-width="2"/>
	<g>
		<path d="M206 194 a14 14 90 0 1 14 14 V219 h-64 V208 a14 14 90 0 1 14 -14" fill="#fdae61" stroke="#fdae61" stroke-width="0"/>
		<path d="M220 219 v11 a14 14 90 0 1 -14 14 H170 a14 14 90 0 1 -14 -14 V219 H64" fill="#fee08b" stroke="#fee08b" stroke-width="0"/>
		<rect x="156" y="194" width="64" height="50" fill="none" rx="14" stroke="#f46d43" stroke-width="2"/>
		<line x1="156" y1="219" x2="220" y2="219" stroke="#f46d43" stroke-width="1"/>
		<text x="164" y="211.75" fill="#000000" font-family="Verdana" font-size="12">WRITES</text>
	</g>
	<text x="289.97" y="506" fill="#1a9850" font-family="Verdana" font-size="12">0,N</text>
	<text x="193" y="261" fill="#1a9850" font-family="Verdana" font-size="12">0,N</text>
</g>

<!-- Association CARRIES -->
<g class="page_0_da412b6b diagram_page" visibility="visible">
	<line x1="61" y1="759" x2="319" y2="464" stroke="#f46d43" stroke-width="2"/>
	<line x1="61" y1="607" x2="319" y2="464" stroke="#f46d43" stroke-width="2"/>
	<g>
		<path d="M340 439 a14 14 90 0 1 14 14 V464 h-70 V453 a14 14 90 0 1 14 -14" fill="#fdae61" stroke="#fdae61" stroke-width="0"/>
		<path d="M354 464 v11 a14 14 90 0 1 -14 14 H298 a14 14 90 0 1 -14 -14 V464 H70" fill="#fee08b" stroke="#fee08b" stroke-width="0"/>
		<rect x="284" y="439" width="70" height="50" fill="none" rx="14" stroke="#f46d43" stroke-width="2"/>
		<line x1="284" y1="464" x2="354" y2="464" stroke="#f46d43" stroke-width="1"/>
		<text x="292" y="456.75" fill="#000000" font-family="Verdana" font-size="12">CARRIES</text>
	</g>
	<text x="78.14" y="709" fill="#1a9850" font-family="Verdana" font-size="12">1,1</text>
	<text x="118" y="590.86" fill="#1a9850" font-family="Verdana" font-size="12">0,N</text>
</g>

<!-- Association ORGANIZE -->
<g class="page_0_da412b6b diagram_page" visibility="visible">
	<line x1="319" y1="607" x2="188" y2="607" stroke="#f46d43" stroke-width="2"/>
	<line x1="61" y1="607" x2="188" y2="607" stroke="#f46d43" stroke-width="2"/>
	<g>
		<path d="M214 582 a14 14 90 0 1 14 14 V607 h-80 V596 a14 14 90 0 1 14 -14" fill="#fdae61" stroke="#fdae61" stroke-width="0"/>
		<path d="M228 607 v11 a14 14 90 0 1 -14 14 H162 a14 14 90 0 1 -14 -14 V607 H80" fill="#fee08b" stroke="#fee08b" stroke-width="0"/>
		<rect x="148" y="582" width="80" height="50" fill="none" rx="14" stroke="#f46d43" stroke-width="2"/>
		<line x1="148" y1="607" x2="228" y2="607" stroke="#f46d43" stroke-width="1"/>
		<text x="155" y="599.75" fill="#000000" font-family="Verdana" font-size="12">ORGANIZE</text>
	</g>
	<text x="257" y="624" fill="#1a9850" font-family="Verdana" font-size="12" onmouseover="show_da412b6b(evt,'organizer')" onmouseout="hide_da412b6b(evt)" style="cursor: pointer;">0,N</text>
	<text x="118" y="624" fill="#1a9850" font-family="Verdana" font-size="12">1,1</text>
</g>

<!-- Association PARTICIPATES -->
<g class="page_0_da412b6b diagram_page" visibility="visible">
	<line x1="319" y1="607" x2="188" y2="759" stroke="#f46d43" stroke-width="2"/>
	<line x1="61" y1="759" x2="188" y2="759" stroke="#f46d43" stroke-width="2"/>
	<g>
		<path d="M226 734 a14 14 90 0 1 14 14 V759 h-104 V748 a14 14 90 0 1 14 -14" fill="#fdae61" stroke="#fdae61" stroke-width="0"/>
		<path d="M240 759 v11 a14 14 90 0 1 -14 14 H150 a14 14 90 0 1 -14 -14 V759 H104" fill="#fee08b" stroke="#fee08b" stroke-width="0"/>
		<rect x="136" y="734" width="104" height="50" fill="none" rx="14" stroke="#f46d43" stroke-width="2"/>
		<line x1="136" y1="759" x2="240" y2="759" stroke="#f46d43" stroke-width="1"/>
		<text x="144" y="751.75" fill="#000000" font-family="Verdana" font-size="12">PARTICIPATES</text>
	</g>
	<text x="257" y="645.94" fill="#1a9850" font-family="Verdana" font-size="12">1,N</text>
	<text x="109" y="776" fill="#1a9850" font-family="Verdana" font-size="12">0,N</text>
</g>

<!-- Association ENTITLES -->
<g class="page_0_da412b6b diagram_page" visibility="visible">
	<line x1="319" y1="607" x2="458" y2="759" stroke="#f46d43" stroke-width="2"/>
	<line x1="319" y1="759" x2="458" y2="759" stroke="#f46d43" stroke-width="2"/>
	<g>
		<path d="M481 734 a14 14 90 0 1 14 14 V759 h-74 V748 a14 14 90 0 1 14 -14" fill="#fdae61" stroke="#fdae61" stroke-width="0"/>
		<path d="M495 759 v11 a14 14 90 0 1 -14 14 H435 a14 14 90 0 1 -14 -14 V759 H74" fill="#fee08b" stroke="#fee08b" stroke-width="0"/>
		<rect x="421" y="734" width="74" height="50" fill="none" rx="14" stroke="#f46d43" stroke-width="2"/>
		<line x1="421" y1="759" x2="495" y2="759" stroke="#f46d43" stroke-width="1"/>
		<text x="428" y="751.75" fill="#000000" font-family="Verdana" font-size="12">ENTITLES</text>
	</g>
	<text x="359" y="643.9" fill="#1a9850" font-family="Verdana" font-size="12">1,1</text>
	<text x="347" y="776" fill="#1a9850" font-family="Verdana" font-size="12">0,N</text>
</g>

<!-- Association REQUIRES -->
<g class="page_0_da412b6b diagram_page" visibility="visible">
	<line x1="61" y1="607" x2="188" y2="860" stroke="#f46d43" stroke-width="2"/>
	<line x1="319" y1="860" x2="188" y2="860" stroke="#f46d43" stroke-width="2"/>
	<g>
		<path d="M213 835 a14 14 90 0 1 14 14 V860 h-78 V849 a14 14 90 0 1 14 -14" fill="#fdae61" stroke="#fdae61" stroke-width="0"/>
		<path d="M227 860 v11 a14 14 90 0 1 -14 14 H163 a14 14 90 0 1 -14 -14 V860 H78" fill="#fee08b" stroke="#fee08b" stroke-width="0"/>
		<rect x="149" y="835" width="78" height="50" fill="none" rx="14" stroke="#f46d43" stroke-width="2"/>
		<line x1="149" y1="860" x2="227" y2="860" stroke="#f46d43" stroke-width="1"/>
		<text x="156" y="852.75" fill="#000000" font-family="Verdana" font-size="12">REQUIRES</text>
	</g>
	<text x="77.07" y="700" fill="#1a9850" font-family="Verdana" font-size="12">0,1</text>
	<text x="238" y="877" fill="#1a9850" font-family="Verdana" font-size="12">1,1</text>
</g>

<!-- Association REPORTS -->
<g class="page_0_da412b6b diagram_page" visibility="visible">
	<line x1="319" y1="607" x2="188" y2="935" stroke="#f46d43" stroke-width="2"/>
	<line x1="188" y1="1019" x2="188" y2="935" stroke="#f46d43" stroke-width="2"/>
	<g>
		<path d="M210 910 a14 14 90 0 1 14 14 V935 h-72 V924 a14 14 90 0 1 14 -14" fill="#fdae61" stroke="#fdae61" stroke-width="0"/>
		<path d="M224 935 v11 a14 14 90 0 1 -14 14 H166 a14 14 90 0 1 -14 -14 V935 H72" fill="#fee08b" stroke="#fee08b" stroke-width="0"/>
		<rect x="152" y="910" width="72" height="50" fill="none" rx="14" stroke="#f46d43" stroke-width="2"/>
		<line x1="152" y1="935" x2="224" y2="935" stroke="#f46d43" stroke-width="1"/>
		<text x="159" y="927.75" fill="#000000" font-family="Verdana" font-size="12">REPORTS</text>
	</g>
	<text x="257" y="689.76" fill="#1a9850" font-family="Verdana" font-size="12">0,N</text>
	<text x="193" y="977" fill="#1a9850" font-family="Verdana" font-size="12">1,1</text>
</g>

<!-- Association DEFINES -->
<g class="page_0_da412b6b diagram_page" visibility="visible">
	<line x1="188" y1="1019" x2="188" y2="1103" stroke="#f46d43" stroke-width="2"/>
	<line x1="458" y1="607" x2="188" y2="1103" stroke="#f46d43" stroke-width="2"/>
	<g>
		<path d="M209 1078 a14 14 90 0 1 14 14 V1103 h-70 V1092 a14 14 90 0 1 14 -14" fill="#fdae61" stroke="#fdae61" stroke-width="0"/>
		<path d="M223 1103 v11 a14 14 90 0 1 -14 14 H167 a14 14 90 0 1 -14 -14 V1103 H70" fill="#fee08b" stroke="#fee08b" stroke-width="0"/>
		<rect x="153" y="1078" width="70" height="50" fill="none" rx="14" stroke="#f46d43" stroke-width="2"/>
		<line x1="153" y1="1103" x2="223" y2="1103" stroke="#f46d43" stroke-width="1"/>
		<text x="161" y="1095.75" fill="#000000" font-family="Verdana" font-size="12">DEFINES</text>
	</g>
	<text x="193" y="1070" fill="#1a9850" font-family="Verdana" font-size="12">1,1</text>
	<text x="440.25" y="658" fill="#1a9850" font-family="Verdana" font-size="12">1,N</text>
</g>

<!-- Entity INSTANCE_TYPE -->
<g class="page_0_da412b6b diagram_page" visibility="visible">
	<g>
		<rect x="263" y="9" width="112" height="25" fill="#a6d96a" stroke="none" stroke-width="0" opacity="1"/>
		<rect x="263" y="34" width="112" height="43" fill="#d9ef8b" stroke="none" stroke-width="0" opacity="1"/>
		<rect x="263" y="9" width="112" height="68" fill="none" stroke="#66bd63" stroke-width="2" opacity="1"/>
		<line x1="263" y1="34" x2="375" y2="34" stroke="#66bd63" stroke-width="1"/>
	</g>
	<text x="269" y="26.75" fill="#000000" font-family="Verdana" font-size="12">INSTANCE_TYPE</text>
	<text x="268" y="51.8" fill="#000000" font-family="Verdana" font-size="12">id</text>
	<line x1="268" y1="54" x2="280" y2="54" stroke="#000000" stroke-width="1"/>
	<text x="268" y="68.8" fill="#000000" font-family="Verdana" font-size="12">description</text>
</g>

<!-- Entity AREA -->
<g class="page_0_da412b6b diagram_page" visibility="visible">
	<g>
		<rect x="280" y="102" width="78" height="25" fill="#a6d96a" stroke="none" stroke-width="0" opacity="1"/>
		<rect x="280" y="127" width="78" height="59" fill="#d9ef8b" stroke="none" stroke-width="0" opacity="1"/>
		<rect x="280" y="102" width="78" height="84" fill="none" stroke="#66bd63" stroke-width="2" opacity="1"/>
		<line x1="280" y1="127" x2="358" y2="127" stroke="#66bd63" stroke-width="1"/>
	</g>
	<text x="303" y="119.75" fill="#000000" font-family="Verdana" font-size="12">AREA</text>
	<text x="285" y="144.8" fill="#000000" font-family="Verdana" font-size="12">id</text>
	<line x1="285" y1="147" x2="297" y2="147" stroke="#000000" stroke-width="1"/>
	<text x="285" y="161.8" fill="#000000" font-family="Verdana" font-size="12">name</text>
	<text x="285" y="178.8" fill="#000000" font-family="Verdana" font-size="12">description</text>
</g>

<!-- Entity MESSAGE -->
<g class="page_0_da412b6b diagram_page" visibility="visible">
	<g>
		<rect x="152" y="269" width="72" height="25" fill="#a6d96a" stroke="none" stroke-width="0" opacity="1"/>
		<rect x="152" y="294" width="72" height="111" fill="#d9ef8b" stroke="none" stroke-width="0" opacity="1"/>
		<rect x="152" y="269" width="72" height="136" fill="none" stroke="#66bd63" stroke-width="2" opacity="1"/>
		<line x1="152" y1="294" x2="224" y2="294" stroke="#66bd63" stroke-width="1"/>
	</g>
	<text x="158" y="286.75" fill="#000000" font-family="Verdana" font-size="12">MESSAGE</text>
	<text x="157" y="311.8" fill="#000000" font-family="Verdana" font-size="12">id</text>
	<line x1="157" y1="314" x2="169" y2="314" stroke="#000000" stroke-width="1"/>
	<text x="157" y="328.8" fill="#000000" font-family="Verdana" font-size="12">title</text>
	<text x="157" y="345.8" fill="#000000" font-family="Verdana" font-size="12">contents</text>
	<text x="157" y="362.8" fill="#000000" font-family="Verdana" font-size="12">date</text>
	<text x="157" y="379.8" fill="#000000" font-family="Verdana" font-size="12">sender</text>
	<text x="157" y="396.8" fill="#000000" font-family="Verdana" font-size="12">addressee</text>
</g>

<!-- Entity EQUIPMENT -->
<g class="page_0_da412b6b diagram_page" visibility="visible">
	<g>
		<rect x="146" y="430" width="84" height="25" fill="#a6d96a" stroke="none" stroke-width="0" opacity="1"/>
		<rect x="146" y="455" width="84" height="43" fill="#d9ef8b" stroke="none" stroke-width="0" opacity="1"/>
		<rect x="146" y="430" width="84" height="68" fill="none" stroke="#66bd63" stroke-width="2" opacity="1"/>
		<line x1="146" y1="455" x2="230" y2="455" stroke="#66bd63" stroke-width="1"/>
	</g>
	<text x="152" y="447.75" fill="#000000" font-family="Verdana" font-size="12">EQUIPMENT</text>
	<text x="151" y="472.8" fill="#000000" font-family="Verdana" font-size="12">id</text>
	<line x1="151" y1="475" x2="163" y2="475" stroke="#000000" stroke-width="1"/>
	<text x="151" y="489.8" fill="#000000" font-family="Verdana" font-size="12">name</text>
</g>

<!-- Entity EVENT -->
<g class="page_0_da412b6b diagram_page" visibility="visible">
	<g>
		<rect x="9" y="531" width="104" height="25" fill="#a6d96a" stroke="none" stroke-width="0" opacity="1"/>
		<rect x="9" y="556" width="104" height="127" fill="#d9ef8b" stroke="none" stroke-width="0" opacity="1"/>
		<rect x="9" y="531" width="104" height="152" fill="none" stroke="#66bd63" stroke-width="2" opacity="1"/>
		<line x1="9" y1="556" x2="113" y2="556" stroke="#66bd63" stroke-width="1"/>
	</g>
	<text x="41" y="548.75" fill="#000000" font-family="Verdana" font-size="12">EVENT</text>
	<text x="14" y="573.8" fill="#000000" font-family="Verdana" font-size="12">id</text>
	<line x1="14" y1="576" x2="26" y2="576" stroke="#000000" stroke-width="1"/>
	<text x="14" y="590.8" fill="#000000" font-family="Verdana" font-size="12">name</text>
	<text x="14" y="607.8" fill="#000000" font-family="Verdana" font-size="12">date</text>
	<text x="14" y="624.8" fill="#000000" font-family="Verdana" font-size="12">listOfAttendees</text>
	<text x="14" y="641.8" fill="#000000" font-family="Verdana" font-size="12">location</text>
	<text x="14" y="658.8" fill="#000000" font-family="Verdana" font-size="12">levelMinimum</text>
	<text x="14" y="675.8" fill="#000000" font-family="Verdana" font-size="12">levelMaximum</text>
</g>

<!-- Entity USER -->
<g class="page_0_da412b6b diagram_page" visibility="visible">
	<g>
		<rect x="284" y="514" width="70" height="25" fill="#a6d96a" stroke="none" stroke-width="0" opacity="1"/>
		<rect x="284" y="539" width="70" height="161" fill="#d9ef8b" stroke="none" stroke-width="0" opacity="1"/>
		<rect x="284" y="514" width="70" height="186" fill="none" stroke="#66bd63" stroke-width="2" opacity="1"/>
		<line x1="284" y1="539" x2="354" y2="539" stroke="#66bd63" stroke-width="1"/>
	</g>
	<text x="302" y="531.75" fill="#000000" font-family="Verdana" font-size="12">USER</text>
	<text x="289" y="556.8" fill="#000000" font-family="Verdana" font-size="12">id</text>
	<line x1="289" y1="559" x2="301" y2="559" stroke="#000000" stroke-width="1"/>
	<text x="289" y="573.8" fill="#000000" font-family="Verdana" font-size="12">nickname</text>
	<text x="289" y="590.8" fill="#000000" font-family="Verdana" font-size="12">email</text>
	<text x="289" y="607.8" fill="#000000" font-family="Verdana" font-size="12">password</text>
	<text x="289" y="624.8" fill="#000000" font-family="Verdana" font-size="12">rank</text>
	<text x="289" y="641.8" fill="#000000" font-family="Verdana" font-size="12">APIKey</text>
	<text x="289" y="658.8" fill="#000000" font-family="Verdana" font-size="12">fname</text>
	<text x="289" y="675.8" fill="#000000" font-family="Verdana" font-size="12">lname</text>
	<text x="289" y="692.8" fill="#000000" font-family="Verdana" font-size="12">birthDate</text>
</g>

<!-- Entity DENUNCIATION_TYPE -->
<g class="page_0_da412b6b diagram_page" visibility="visible">
	<g>
		<rect x="386" y="573" width="144" height="25" fill="#a6d96a" stroke="none" stroke-width="0" opacity="1"/>
		<rect x="386" y="598" width="144" height="43" fill="#d9ef8b" stroke="none" stroke-width="0" opacity="1"/>
		<rect x="386" y="573" width="144" height="68" fill="none" stroke="#66bd63" stroke-width="2" opacity="1"/>
		<line x1="386" y1="598" x2="530" y2="598" stroke="#66bd63" stroke-width="1"/>
	</g>
	<text x="391" y="590.75" fill="#000000" font-family="Verdana" font-size="12">DENUNCIATION_TYPE</text>
	<text x="391" y="615.8" fill="#000000" font-family="Verdana" font-size="12">id</text>
	<line x1="391" y1="618" x2="403" y2="618" stroke="#000000" stroke-width="1"/>
	<text x="391" y="632.8" fill="#000000" font-family="Verdana" font-size="12">name</text>
</g>

<!-- Entity CHARACTER -->
<g class="page_0_da412b6b diagram_page" visibility="visible">
	<g>
		<rect x="18" y="717" width="86" height="25" fill="#a6d96a" stroke="none" stroke-width="0" opacity="1"/>
		<rect x="18" y="742" width="86" height="59" fill="#d9ef8b" stroke="none" stroke-width="0" opacity="1"/>
		<rect x="18" y="717" width="86" height="84" fill="none" stroke="#66bd63" stroke-width="2" opacity="1"/>
		<line x1="18" y1="742" x2="104" y2="742" stroke="#66bd63" stroke-width="1"/>
	</g>
	<text x="24" y="734.75" fill="#000000" font-family="Verdana" font-size="12">CHARACTER</text>
	<text x="23" y="759.8" fill="#000000" font-family="Verdana" font-size="12">id</text>
	<line x1="23" y1="762" x2="35" y2="762" stroke="#000000" stroke-width="1"/>
	<text x="23" y="776.8" fill="#000000" font-family="Verdana" font-size="12">archetype</text>
	<text x="23" y="793.8" fill="#000000" font-family="Verdana" font-size="12">level</text>
</g>

<!-- Entity RANK -->
<g class="page_0_da412b6b diagram_page" visibility="visible">
	<g>
		<rect x="296" y="725" width="46" height="25" fill="#a6d96a" stroke="none" stroke-width="0" opacity="1"/>
		<rect x="296" y="750" width="46" height="43" fill="#d9ef8b" stroke="none" stroke-width="0" opacity="1"/>
		<rect x="296" y="725" width="46" height="68" fill="none" stroke="#66bd63" stroke-width="2" opacity="1"/>
		<line x1="296" y1="750" x2="342" y2="750" stroke="#66bd63" stroke-width="1"/>
	</g>
	<text x="302" y="742.75" fill="#000000" font-family="Verdana" font-size="12">RANK</text>
	<text x="301" y="767.8" fill="#000000" font-family="Verdana" font-size="12">id</text>
	<line x1="301" y1="770" x2="313" y2="770" stroke="#000000" stroke-width="1"/>
	<text x="301" y="784.8" fill="#000000" font-family="Verdana" font-size="12">name</text>
</g>

<!-- Entity PREREQUISITES -->
<g class="page_0_da412b6b diagram_page" visibility="visible">
	<g>
		<rect x="264" y="818" width="110" height="25" fill="#a6d96a" stroke="none" stroke-width="0" opacity="1"/>
		<rect x="264" y="843" width="110" height="59" fill="#d9ef8b" stroke="none" stroke-width="0" opacity="1"/>
		<rect x="264" y="818" width="110" height="84" fill="none" stroke="#66bd63" stroke-width="2" opacity="1"/>
		<line x1="264" y1="843" x2="374" y2="843" stroke="#66bd63" stroke-width="1"/>
	</g>
	<text x="269" y="835.75" fill="#000000" font-family="Verdana" font-size="12">PREREQUISITES</text>
	<text x="269" y="860.8" fill="#000000" font-family="Verdana" font-size="12">id</text>
	<line x1="269" y1="863" x2="281" y2="863" stroke="#000000" stroke-width="1"/>
	<text x="269" y="877.8" fill="#000000" font-family="Verdana" font-size="12">levelMinimum</text>
	<text x="269" y="894.8" fill="#000000" font-family="Verdana" font-size="12">levelMaximum</text>
</g>

<!-- Entity DENUNCIATION -->
<g class="page_0_da412b6b diagram_page" visibility="visible">
	<g>
		<rect x="134" y="985" width="108" height="25" fill="#a6d96a" stroke="none" stroke-width="0" opacity="1"/>
		<rect x="134" y="1010" width="108" height="43" fill="#d9ef8b" stroke="none" stroke-width="0" opacity="1"/>
		<rect x="134" y="985" width="108" height="68" fill="none" stroke="#66bd63" stroke-width="2" opacity="1"/>
		<line x1="134" y1="1010" x2="242" y2="1010" stroke="#66bd63" stroke-width="1"/>
	</g>
	<text x="140" y="1002.75" fill="#000000" font-family="Verdana" font-size="12">DENUNCIATION</text>
	<text x="139" y="1027.8" fill="#000000" font-family="Verdana" font-size="12">id</text>
	<line x1="139" y1="1030" x2="151" y2="1030" stroke="#000000" stroke-width="1"/>
	<text x="139" y="1044.8" fill="#000000" font-family="Verdana" font-size="12">name</text>
</g>

<!-- Notes -->
<script type="text/ecmascript">
<![CDATA[
	function show_da412b6b(evt, text) {
		var pos = (evt.target.getAttribute("y") < 1092) ? "bottom" : "top";
		var note = document.getElementById(pos + "_note_da412b6b");
		note.textContent = text;
		note.setAttributeNS(null, "visibility", "visible");
		document.getElementById(pos + "_overlay_da412b6b").setAttributeNS(null, "visibility", "visible");
	}
	function hide_da412b6b(evt) {
		document.getElementById("top_note_da412b6b").setAttributeNS(null, "visibility", "hidden");
		document.getElementById("top_overlay_da412b6b").setAttributeNS(null, "visibility", "hidden");
		document.getElementById("bottom_note_da412b6b").setAttributeNS(null, "visibility", "hidden");
		document.getElementById("bottom_overlay_da412b6b").setAttributeNS(null, "visibility", "hidden");
	}
]]>
</script>
<rect id="top_overlay_da412b6b" x="0" y="0" width="100%" height="40" fill="#d73027" stroke-width="0" opacity="0.9" visibility="hidden"/>
<text id="top_note_da412b6b" text-anchor="middle" x="269" y="24" fill="#ffffbf" font-family="Verdana" font-size="14" visibility="hidden"></text>
<rect id="bottom_overlay_da412b6b" x="0" y="1097" width="100%" height="40" fill="#d73027" stroke-width="0" opacity="0.9" visibility="hidden"/>
<text id="bottom_note_da412b6b" text-anchor="middle" x="269" y="1121" fill="#ffffbf" font-family="Verdana" font-size="14" visibility="hidden"></text>
</svg>