<?xml version="1.0" encoding="utf-8"?>
<!-- Generated by Mocodo 4.2.8 -->
<svg width="1037" height="641" viewBox="0 0 1037 641" xmlns="http://www.w3.org/2000/svg">
<rect x="0" y="0" width="1037" height="641" fill="#f7f7f7" stroke="none" stroke-width="0"/>

<!-- Association WRITES -->
<g class="page_0_b425ce53 diagram_page" visibility="visible">
	<line x1="622" y1="287" x2="491" y2="161" stroke="#e08214" stroke-width="2"/>
	<line x1="622" y1="60" x2="491" y2="161" stroke="#e08214" stroke-width="2"/>
	<g>
		<path d="M509 136 a14 14 90 0 1 14 14 V161 h-64 V150 a14 14 90 0 1 14 -14" fill="#fdb863" stroke="#fdb863" stroke-width="0"/>
		<path d="M523 161 v11 a14 14 90 0 1 -14 14 H473 a14 14 90 0 1 -14 -14 V161 H64" fill="#fee0b6" stroke="#fee0b6" stroke-width="0"/>
		<rect x="459" y="136" width="64" height="50" fill="none" rx="14" stroke="#e08214" stroke-width="2"/>
		<line x1="459" y1="161" x2="523" y2="161" stroke="#e08214" stroke-width="1"/>
		<text x="467" y="153.75" fill="#000000" font-family="Verdana" font-size="12">WRITES</text>
	</g>
	<text x="560" y="263.46" fill="#542788" font-family="Verdana" font-size="12">0,N</text>
	<text x="561" y="84.77" fill="#542788" font-family="Verdana" font-size="12">1,1</text>
</g>

<!-- Association RECEIVES -->
<g class="page_0_b425ce53 diagram_page" visibility="visible">
	<line x1="622" y1="60" x2="622" y2="161" stroke="#e08214" stroke-width="2"/>
	<line x1="622" y1="287" x2="622" y2="161" stroke="#e08214" stroke-width="2"/>
	<g>
		<path d="M646 136 a14 14 90 0 1 14 14 V161 h-76 V150 a14 14 90 0 1 14 -14" fill="#fdb863" stroke="#fdb863" stroke-width="0"/>
		<path d="M660 161 v11 a14 14 90 0 1 -14 14 H598 a14 14 90 0 1 -14 -14 V161 H76" fill="#fee0b6" stroke="#fee0b6" stroke-width="0"/>
		<rect x="584" y="136" width="76" height="50" fill="none" rx="14" stroke="#e08214" stroke-width="2"/>
		<line x1="584" y1="161" x2="660" y2="161" stroke="#e08214" stroke-width="1"/>
		<text x="591" y="153.75" fill="#000000" font-family="Verdana" font-size="12">RECEIVES</text>
	</g>
	<text x="627" y="128" fill="#542788" font-family="Verdana" font-size="12">1,1</text>
	<text x="627" y="203" fill="#542788" font-family="Verdana" font-size="12">0,N</text>
</g>

<!-- Association OWNS -->
<g class="page_0_b425ce53 diagram_page" visibility="visible">
	<line x1="735" y1="60" x2="735" y2="161" stroke="#e08214" stroke-width="2"/>
	<line x1="622" y1="287" x2="735" y2="161" stroke="#e08214" stroke-width="2"/>
	<g>
		<path d="M748 136 a14 14 90 0 1 14 14 V161 h-54 V150 a14 14 90 0 1 14 -14" fill="#fdb863" stroke="#fdb863" stroke-width="0"/>
		<path d="M762 161 v11 a14 14 90 0 1 -14 14 H722 a14 14 90 0 1 -14 -14 V161 H54" fill="#fee0b6" stroke="#fee0b6" stroke-width="0"/>
		<rect x="708" y="136" width="54" height="50" fill="none" rx="14" stroke="#e08214" stroke-width="2"/>
		<line x1="708" y1="161" x2="762" y2="161" stroke="#e08214" stroke-width="1"/>
		<text x="715" y="153.75" fill="#000000" font-family="Verdana" font-size="12">OWNS</text>
	</g>
	<text x="709" y="119" fill="#542788" font-family="Verdana" font-size="12">1,1</text>
	<text x="662" y="258.45" fill="#542788" font-family="Verdana" font-size="12">0,N</text>
</g>

<!-- Association PARTICIPATES -->
<g class="page_0_b425ce53 diagram_page" visibility="visible">
	<line x1="866" y1="287" x2="866" y2="161" stroke="#e08214" stroke-width="2"/>
	<line x1="735" y1="60" x2="866" y2="161" stroke="#e08214" stroke-width="2"/>
	<g>
		<path d="M904 136 a14 14 90 0 1 14 14 V161 h-104 V150 a14 14 90 0 1 14 -14" fill="#fdb863" stroke="#fdb863" stroke-width="0"/>
		<path d="M918 161 v11 a14 14 90 0 1 -14 14 H828 a14 14 90 0 1 -14 -14 V161 H104" fill="#fee0b6" stroke="#fee0b6" stroke-width="0"/>
		<rect x="814" y="136" width="104" height="50" fill="none" rx="14" stroke="#e08214" stroke-width="2"/>
		<line x1="814" y1="161" x2="918" y2="161" stroke="#e08214" stroke-width="1"/>
		<text x="822" y="153.75" fill="#000000" font-family="Verdana" font-size="12">PARTICIPATES</text>
	</g>
	<text x="871" y="220" fill="#542788" font-family="Verdana" font-size="12">0,N</text>
	<text x="783" y="90.94" fill="#542788" font-family="Verdana" font-size="12">0,N</text>
</g>

<!-- Association DEFINES -->
<g class="page_0_b425ce53 diagram_page" visibility="visible">
	<line x1="341" y1="287" x2="220" y2="287" stroke="#e08214" stroke-width="2"/>
	<line x1="81" y1="287" x2="220" y2="287" stroke="#e08214" stroke-width="2"/>
	<g>
		<path d="M241 262 a14 14 90 0 1 14 14 V287 h-70 V276 a14 14 90 0 1 14 -14" fill="#fdb863" stroke="#fdb863" stroke-width="0"/>
		<path d="M255 287 v11 a14 14 90 0 1 -14 14 H199 a14 14 90 0 1 -14 -14 V287 H70" fill="#fee0b6" stroke="#fee0b6" stroke-width="0"/>
		<rect x="185" y="262" width="70" height="50" fill="none" rx="14" stroke="#e08214" stroke-width="2"/>
		<line x1="185" y1="287" x2="255" y2="287" stroke="#e08214" stroke-width="1"/>
		<text x="193" y="279.75" fill="#000000" font-family="Verdana" font-size="12">DEFINES</text>
	</g>
	<text x="261" y="304" fill="#542788" font-family="Verdana" font-size="12">1,1</text>
	<text x="158" y="304" fill="#542788" font-family="Verdana" font-size="12">0,N</text>
</g>

<!-- Association TO_BE_REPORTED -->
<g class="page_0_b425ce53 diagram_page" visibility="visible">
	<line x1="622" y1="287" x2="491" y2="287" stroke="#e08214" stroke-width="2"/>
	<line x1="341" y1="287" x2="491" y2="287" stroke="#e08214" stroke-width="2"/>
	<g>
		<path d="M541 262 a14 14 90 0 1 14 14 V287 h-128 V276 a14 14 90 0 1 14 -14" fill="#fdb863" stroke="#fdb863" stroke-width="0"/>
		<path d="M555 287 v11 a14 14 90 0 1 -14 14 H441 a14 14 90 0 1 -14 -14 V287 H128" fill="#fee0b6" stroke="#fee0b6" stroke-width="0"/>
		<rect x="427" y="262" width="128" height="50" fill="none" rx="14" stroke="#e08214" stroke-width="2"/>
		<line x1="427" y1="287" x2="555" y2="287" stroke="#e08214" stroke-width="1"/>
		<text x="434" y="279.75" fill="#000000" font-family="Verdana" font-size="12">TO_BE_REPORTED</text>
	</g>
	<text x="560" y="304" fill="#542788" font-family="Verdana" font-size="12">0,N</text>
	<text x="400" y="279" fill="#542788" font-family="Verdana" font-size="12">1,1</text>
</g>

<!-- Association ORGANIZES -->
<g class="page_0_b425ce53 diagram_page" visibility="visible">
	<line x1="622" y1="287" x2="735" y2="287" stroke="#e08214" stroke-width="2"/>
	<line x1="866" y1="287" x2="735" y2="287" stroke="#e08214" stroke-width="2"/>
	<g>
		<path d="M765 262 a14 14 90 0 1 14 14 V287 h-88 V276 a14 14 90 0 1 14 -14" fill="#fdb863" stroke="#fdb863" stroke-width="0"/>
		<path d="M779 287 v11 a14 14 90 0 1 -14 14 H705 a14 14 90 0 1 -14 -14 V287 H88" fill="#fee0b6" stroke="#fee0b6" stroke-width="0"/>
		<rect x="691" y="262" width="88" height="50" fill="none" rx="14" stroke="#e08214" stroke-width="2"/>
		<line x1="691" y1="287" x2="779" y2="287" stroke="#e08214" stroke-width="1"/>
		<text x="698" y="279.75" fill="#000000" font-family="Verdana" font-size="12">ORGANIZES</text>
	</g>
	<text x="662" y="304" fill="#542788" font-family="Verdana" font-size="12" onmouseover="show_b425ce53(evt,'organizer')" onmouseout="hide_b425ce53(evt)" style="cursor: pointer;">0,N</text>
	<text x="791" y="304" fill="#542788" font-family="Verdana" font-size="12">1,1</text>
</g>

<!-- Association REQUIRES -->
<g class="page_0_b425ce53 diagram_page" visibility="visible">
	<line x1="986" y1="413" x2="986" y2="287" stroke="#e08214" stroke-width="2"/>
	<line x1="866" y1="287" x2="986" y2="287" stroke="#e08214" stroke-width="2"/>
	<g>
		<path d="M1011 262 a14 14 90 0 1 14 14 V287 h-78 V276 a14 14 90 0 1 14 -14" fill="#fdb863" stroke="#fdb863" stroke-width="0"/>
		<path d="M1025 287 v11 a14 14 90 0 1 -14 14 H961 a14 14 90 0 1 -14 -14 V287 H78" fill="#fee0b6" stroke="#fee0b6" stroke-width="0"/>
		<rect x="947" y="262" width="78" height="50" fill="none" rx="14" stroke="#e08214" stroke-width="2"/>
		<line x1="947" y1="287" x2="1025" y2="287" stroke="#e08214" stroke-width="1"/>
		<text x="954" y="279.75" fill="#000000" font-family="Verdana" font-size="12">REQUIRES</text>
	</g>
	<text x="991" y="371" fill="#542788" font-family="Verdana" font-size="12">0,N</text>
	<text x="920" y="304" fill="#542788" font-family="Verdana" font-size="12">0,1</text>
</g>

<!-- Association REPORTS -->
<g class="page_0_b425ce53 diagram_page" visibility="visible">
	<line x1="622" y1="287" x2="491" y2="413" stroke="#e08214" stroke-width="2"/>
	<line x1="341" y1="287" x2="491" y2="413" stroke="#e08214" stroke-width="2"/>
	<g>
		<path d="M513 388 a14 14 90 0 1 14 14 V413 h-72 V402 a14 14 90 0 1 14 -14" fill="#fdb863" stroke="#fdb863" stroke-width="0"/>
		<path d="M527 413 v11 a14 14 90 0 1 -14 14 H469 a14 14 90 0 1 -14 -14 V413 H72" fill="#fee0b6" stroke="#fee0b6" stroke-width="0"/>
		<rect x="455" y="388" width="72" height="50" fill="none" rx="14" stroke="#e08214" stroke-width="2"/>
		<line x1="455" y1="413" x2="527" y2="413" stroke="#e08214" stroke-width="1"/>
		<text x="462" y="405.75" fill="#000000" font-family="Verdana" font-size="12">REPORTS</text>
	</g>
	<text x="560" y="319.54" fill="#542788" font-family="Verdana" font-size="12">0,N</text>
	<text x="361.68" y="338" fill="#542788" font-family="Verdana" font-size="12">1,1</text>
</g>

<!-- Association GENERATES -->
<g class="page_0_b425ce53 diagram_page" visibility="visible">
	<line x1="622" y1="505" x2="622" y2="413" stroke="#e08214" stroke-width="2"/>
	<line x1="622" y1="287" x2="622" y2="413" stroke="#e08214" stroke-width="2"/>
	<g>
		<path d="M652 388 a14 14 90 0 1 14 14 V413 h-88 V402 a14 14 90 0 1 14 -14" fill="#fdb863" stroke="#fdb863" stroke-width="0"/>
		<path d="M666 413 v11 a14 14 90 0 1 -14 14 H592 a14 14 90 0 1 -14 -14 V413 H88" fill="#fee0b6" stroke="#fee0b6" stroke-width="0"/>
		<rect x="578" y="388" width="88" height="50" fill="none" rx="14" stroke="#e08214" stroke-width="2"/>
		<line x1="578" y1="413" x2="666" y2="413" stroke="#e08214" stroke-width="1"/>
		<text x="585" y="405.75" fill="#000000" font-family="Verdana" font-size="12">GENERATES</text>
	</g>
	<text x="627" y="463" fill="#542788" font-family="Verdana" font-size="12">1,1</text>
	<text x="627" y="380" fill="#542788" font-family="Verdana" font-size="12">0,N</text>
</g>

<!-- Association ENTITLES -->
<g class="page_0_b425ce53 diagram_page" visibility="visible">
	<line x1="622" y1="287" x2="735" y2="413" stroke="#e08214" stroke-width="2"/>
	<line x1="735" y1="505" x2="735" y2="413" stroke="#e08214" stroke-width="2"/>
	<g>
		<path d="M758 388 a14 14 90 0 1 14 14 V413 h-74 V402 a14 14 90 0 1 14 -14" fill="#fdb863" stroke="#fdb863" stroke-width="0"/>
		<path d="M772 413 v11 a14 14 90 0 1 -14 14 H712 a14 14 90 0 1 -14 -14 V413 H74" fill="#fee0b6" stroke="#fee0b6" stroke-width="0"/>
		<rect x="698" y="388" width="74" height="50" fill="none" rx="14" stroke="#e08214" stroke-width="2"/>
		<line x1="698" y1="413" x2="772" y2="413" stroke="#e08214" stroke-width="1"/>
		<text x="705" y="405.75" fill="#000000" font-family="Verdana" font-size="12">ENTITLES</text>
	</g>
	<text x="662" y="324.55" fill="#542788" font-family="Verdana" font-size="12">1,1</text>
	<text x="740" y="463" fill="#542788" font-family="Verdana" font-size="12">0,N</text>
</g>

<!-- Association OCCURS -->
<g class="page_0_b425ce53 diagram_page" visibility="visible">
	<line x1="866" y1="287" x2="866" y2="413" stroke="#e08214" stroke-width="2"/>
	<line x1="866" y1="505" x2="866" y2="413" stroke="#e08214" stroke-width="2"/>
	<g>
		<path d="M886 388 a14 14 90 0 1 14 14 V413 h-68 V402 a14 14 90 0 1 14 -14" fill="#fdb863" stroke="#fdb863" stroke-width="0"/>
		<path d="M900 413 v11 a14 14 90 0 1 -14 14 H846 a14 14 90 0 1 -14 -14 V413 H68" fill="#fee0b6" stroke="#fee0b6" stroke-width="0"/>
		<rect x="832" y="388" width="68" height="50" fill="none" rx="14" stroke="#e08214" stroke-width="2"/>
		<line x1="832" y1="413" x2="900" y2="413" stroke="#e08214" stroke-width="1"/>
		<text x="840" y="405.75" fill="#000000" font-family="Verdana" font-size="12">OCCURS</text>
	</g>
	<text x="871" y="363" fill="#542788" font-family="Verdana" font-size="12" onmouseover="show_b425ce53(evt,'happening')" onmouseout="hide_b425ce53(evt)" style="cursor: pointer;">1,1</text>
	<text x="871" y="455" fill="#542788" font-family="Verdana" font-size="12">0,N</text>
</g>

<!-- Association DESCRIBES -->
<g class="page_0_b425ce53 diagram_page" visibility="visible">
	<line x1="866" y1="505" x2="866" y2="598" stroke="#e08214" stroke-width="2"/>
	<line x1="735" y1="598" x2="866" y2="598" stroke="#e08214" stroke-width="2"/>
	<g>
		<path d="M895 573 a14 14 90 0 1 14 14 V598 h-86 V587 a14 14 90 0 1 14 -14" fill="#fdb863" stroke="#fdb863" stroke-width="0"/>
		<path d="M909 598 v11 a14 14 90 0 1 -14 14 H837 a14 14 90 0 1 -14 -14 V598 H86" fill="#fee0b6" stroke="#fee0b6" stroke-width="0"/>
		<rect x="823" y="573" width="86" height="50" fill="none" rx="14" stroke="#e08214" stroke-width="2"/>
		<line x1="823" y1="598" x2="909" y2="598" stroke="#e08214" stroke-width="1"/>
		<text x="830" y="590.75" fill="#000000" font-family="Verdana" font-size="12">DESCRIBES</text>
	</g>
	<text x="871" y="564" fill="#542788" font-family="Verdana" font-size="12">1,1</text>
	<text x="796" y="615" fill="#542788" font-family="Verdana" font-size="12">0,N</text>
</g>

<!-- Entity MESSAGE -->
<g class="page_0_b425ce53 diagram_page" visibility="visible">
	<g>
		<rect x="587" y="9" width="70" height="25" fill="#b2abd2" stroke="none" stroke-width="0" opacity="1"/>
		<rect x="587" y="34" width="70" height="77" fill="#d8daeb" stroke="none" stroke-width="0" opacity="1"/>
		<rect x="587" y="9" width="70" height="102" fill="none" stroke="#8073ac" stroke-width="2" opacity="1"/>
		<line x1="587" y1="34" x2="657" y2="34" stroke="#8073ac" stroke-width="1"/>
	</g>
	<text x="592" y="26.75" fill="#000000" font-family="Verdana" font-size="12">MESSAGE</text>
	<text x="592" y="51.8" fill="#000000" font-family="Verdana" font-size="12">id</text>
	<line x1="592" y1="54" x2="604" y2="54" stroke="#000000" stroke-width="1"/>
	<text x="592" y="68.8" fill="#000000" font-family="Verdana" font-size="12">title</text>
	<text x="592" y="85.8" fill="#000000" font-family="Verdana" font-size="12">contents</text>
	<text x="592" y="102.8" fill="#000000" font-family="Verdana" font-size="12">date</text>
</g>

<!-- Entity CHARACTER -->
<g class="page_0_b425ce53 diagram_page" visibility="visible">
	<g>
		<rect x="692" y="18" width="86" height="25" fill="#b2abd2" stroke="none" stroke-width="0" opacity="1"/>
		<rect x="692" y="43" width="86" height="59" fill="#d8daeb" stroke="none" stroke-width="0" opacity="1"/>
		<rect x="692" y="18" width="86" height="84" fill="none" stroke="#8073ac" stroke-width="2" opacity="1"/>
		<line x1="692" y1="43" x2="778" y2="43" stroke="#8073ac" stroke-width="1"/>
	</g>
	<text x="698" y="35.75" fill="#000000" font-family="Verdana" font-size="12">CHARACTER</text>
	<text x="697" y="60.8" fill="#000000" font-family="Verdana" font-size="12">id</text>
	<line x1="697" y1="63" x2="709" y2="63" stroke="#000000" stroke-width="1"/>
	<text x="697" y="77.8" fill="#000000" font-family="Verdana" font-size="12">archetype</text>
	<text x="697" y="94.8" fill="#000000" font-family="Verdana" font-size="12">level</text>
</g>

<!-- Entity DENUNCIATION_TYPE -->
<g class="page_0_b425ce53 diagram_page" visibility="visible">
	<g>
		<rect x="9" y="253" width="144" height="25" fill="#b2abd2" stroke="none" stroke-width="0" opacity="1"/>
		<rect x="9" y="278" width="144" height="43" fill="#d8daeb" stroke="none" stroke-width="0" opacity="1"/>
		<rect x="9" y="253" width="144" height="68" fill="none" stroke="#8073ac" stroke-width="2" opacity="1"/>
		<line x1="9" y1="278" x2="153" y2="278" stroke="#8073ac" stroke-width="1"/>
	</g>
	<text x="14" y="270.75" fill="#000000" font-family="Verdana" font-size="12">DENUNCIATION_TYPE</text>
	<text x="14" y="295.8" fill="#000000" font-family="Verdana" font-size="12">id</text>
	<line x1="14" y1="298" x2="26" y2="298" stroke="#000000" stroke-width="1"/>
	<text x="14" y="312.8" fill="#000000" font-family="Verdana" font-size="12">label</text>
</g>

<!-- Entity DENUNCIATION -->
<g class="page_0_b425ce53 diagram_page" visibility="visible">
	<g>
		<rect x="287" y="253" width="108" height="25" fill="#b2abd2" stroke="none" stroke-width="0" opacity="1"/>
		<rect x="287" y="278" width="108" height="43" fill="#d8daeb" stroke="none" stroke-width="0" opacity="1"/>
		<rect x="287" y="253" width="108" height="68" fill="none" stroke="#8073ac" stroke-width="2" opacity="1"/>
		<line x1="287" y1="278" x2="395" y2="278" stroke="#8073ac" stroke-width="1"/>
	</g>
	<text x="293" y="270.75" fill="#000000" font-family="Verdana" font-size="12">DENUNCIATION</text>
	<text x="292" y="295.8" fill="#000000" font-family="Verdana" font-size="12">id</text>
	<line x1="292" y1="298" x2="304" y2="298" stroke="#000000" stroke-width="1"/>
	<text x="292" y="312.8" fill="#000000" font-family="Verdana" font-size="12">description</text>
</g>

<!-- Entity USER -->
<g class="page_0_b425ce53 diagram_page" visibility="visible">
	<g>
		<rect x="587" y="211" width="70" height="25" fill="#b2abd2" stroke="none" stroke-width="0" opacity="1"/>
		<rect x="587" y="236" width="70" height="127" fill="#d8daeb" stroke="none" stroke-width="0" opacity="1"/>
		<rect x="587" y="211" width="70" height="152" fill="none" stroke="#8073ac" stroke-width="2" opacity="1"/>
		<line x1="587" y1="236" x2="657" y2="236" stroke="#8073ac" stroke-width="1"/>
	</g>
	<text x="605" y="228.75" fill="#000000" font-family="Verdana" font-size="12">USER</text>
	<text x="592" y="253.8" fill="#000000" font-family="Verdana" font-size="12">id</text>
	<line x1="592" y1="256" x2="604" y2="256" stroke="#000000" stroke-width="1"/>
	<text x="592" y="270.8" fill="#000000" font-family="Verdana" font-size="12">nickname</text>
	<text x="592" y="287.8" fill="#000000" font-family="Verdana" font-size="12">email</text>
	<text x="592" y="304.8" fill="#000000" font-family="Verdana" font-size="12">password</text>
	<text x="592" y="321.8" fill="#000000" font-family="Verdana" font-size="12">fname</text>
	<text x="592" y="338.8" fill="#000000" font-family="Verdana" font-size="12">lname</text>
	<text x="592" y="355.8" fill="#000000" font-family="Verdana" font-size="12">birthDate</text>
</g>

<!-- Entity EVENT -->
<g class="page_0_b425ce53 diagram_page" visibility="visible">
	<g>
		<rect x="817" y="228" width="98" height="25" fill="#b2abd2" stroke="none" stroke-width="0" opacity="1"/>
		<rect x="817" y="253" width="98" height="93" fill="#d8daeb" stroke="none" stroke-width="0" opacity="1"/>
		<rect x="817" y="228" width="98" height="118" fill="none" stroke="#8073ac" stroke-width="2" opacity="1"/>
		<line x1="817" y1="253" x2="915" y2="253" stroke="#8073ac" stroke-width="1"/>
	</g>
	<text x="846" y="245.75" fill="#000000" font-family="Verdana" font-size="12">EVENT</text>
	<text x="822" y="270.8" fill="#000000" font-family="Verdana" font-size="12">id</text>
	<line x1="822" y1="273" x2="834" y2="273" stroke="#000000" stroke-width="1"/>
	<text x="822" y="287.8" fill="#000000" font-family="Verdana" font-size="12">name</text>
	<text x="822" y="304.8" fill="#000000" font-family="Verdana" font-size="12">date</text>
	<text x="822" y="321.8" fill="#000000" font-family="Verdana" font-size="12">levelMinimum</text>
	<text x="822" y="338.8" fill="#000000" font-family="Verdana" font-size="12">levelMaximum</text>
</g>

<!-- Entity EQUIPMENT -->
<g class="page_0_b425ce53 diagram_page" visibility="visible">
	<g>
		<rect x="944" y="379" width="84" height="25" fill="#b2abd2" stroke="none" stroke-width="0" opacity="1"/>
		<rect x="944" y="404" width="84" height="43" fill="#d8daeb" stroke="none" stroke-width="0" opacity="1"/>
		<rect x="944" y="379" width="84" height="68" fill="none" stroke="#8073ac" stroke-width="2" opacity="1"/>
		<line x1="944" y1="404" x2="1028" y2="404" stroke="#8073ac" stroke-width="1"/>
	</g>
	<text x="950" y="396.75" fill="#000000" font-family="Verdana" font-size="12">EQUIPMENT</text>
	<text x="949" y="421.8" fill="#000000" font-family="Verdana" font-size="12">id</text>
	<line x1="949" y1="424" x2="961" y2="424" stroke="#000000" stroke-width="1"/>
	<text x="949" y="438.8" fill="#000000" font-family="Verdana" font-size="12">gear</text>
</g>

<!-- Entity API_KEY -->
<g class="page_0_b425ce53 diagram_page" visibility="visible">
	<g>
		<rect x="591" y="471" width="62" height="25" fill="#b2abd2" stroke="none" stroke-width="0" opacity="1"/>
		<rect x="591" y="496" width="62" height="43" fill="#d8daeb" stroke="none" stroke-width="0" opacity="1"/>
		<rect x="591" y="471" width="62" height="68" fill="none" stroke="#8073ac" stroke-width="2" opacity="1"/>
		<line x1="591" y1="496" x2="653" y2="496" stroke="#8073ac" stroke-width="1"/>
	</g>
	<text x="596" y="488.75" fill="#000000" font-family="Verdana" font-size="12">API_KEY</text>
	<text x="596" y="513.8" fill="#000000" font-family="Verdana" font-size="12">id</text>
	<line x1="596" y1="516" x2="608" y2="516" stroke="#000000" stroke-width="1"/>
	<text x="596" y="530.8" fill="#000000" font-family="Verdana" font-size="12">api_key</text>
</g>

<!-- Entity RANK -->
<g class="page_0_b425ce53 diagram_page" visibility="visible">
	<g>
		<rect x="712" y="471" width="46" height="25" fill="#b2abd2" stroke="none" stroke-width="0" opacity="1"/>
		<rect x="712" y="496" width="46" height="43" fill="#d8daeb" stroke="none" stroke-width="0" opacity="1"/>
		<rect x="712" y="471" width="46" height="68" fill="none" stroke="#8073ac" stroke-width="2" opacity="1"/>
		<line x1="712" y1="496" x2="758" y2="496" stroke="#8073ac" stroke-width="1"/>
	</g>
	<text x="718" y="488.75" fill="#000000" font-family="Verdana" font-size="12">RANK</text>
	<text x="717" y="513.8" fill="#000000" font-family="Verdana" font-size="12">id</text>
	<line x1="717" y1="516" x2="729" y2="516" stroke="#000000" stroke-width="1"/>
	<text x="717" y="530.8" fill="#000000" font-family="Verdana" font-size="12">label</text>
</g>

<!-- Entity AREA -->
<g class="page_0_b425ce53 diagram_page" visibility="visible">
	<g>
		<rect x="827" y="463" width="78" height="25" fill="#b2abd2" stroke="none" stroke-width="0" opacity="1"/>
		<rect x="827" y="488" width="78" height="59" fill="#d8daeb" stroke="none" stroke-width="0" opacity="1"/>
		<rect x="827" y="463" width="78" height="84" fill="none" stroke="#8073ac" stroke-width="2" opacity="1"/>
		<line x1="827" y1="488" x2="905" y2="488" stroke="#8073ac" stroke-width="1"/>
	</g>
	<text x="850" y="480.75" fill="#000000" font-family="Verdana" font-size="12">AREA</text>
	<text x="832" y="505.8" fill="#000000" font-family="Verdana" font-size="12">id</text>
	<line x1="832" y1="508" x2="844" y2="508" stroke="#000000" stroke-width="1"/>
	<text x="832" y="522.8" fill="#000000" font-family="Verdana" font-size="12">name</text>
	<text x="832" y="539.8" fill="#000000" font-family="Verdana" font-size="12">description</text>
</g>

<!-- Entity INSTANCE_TYPE -->
<g class="page_0_b425ce53 diagram_page" visibility="visible">
	<g>
		<rect x="679" y="564" width="112" height="25" fill="#b2abd2" stroke="none" stroke-width="0" opacity="1"/>
		<rect x="679" y="589" width="112" height="43" fill="#d8daeb" stroke="none" stroke-width="0" opacity="1"/>
		<rect x="679" y="564" width="112" height="68" fill="none" stroke="#8073ac" stroke-width="2" opacity="1"/>
		<line x1="679" y1="589" x2="791" y2="589" stroke="#8073ac" stroke-width="1"/>
	</g>
	<text x="685" y="581.75" fill="#000000" font-family="Verdana" font-size="12">INSTANCE_TYPE</text>
	<text x="684" y="606.8" fill="#000000" font-family="Verdana" font-size="12">id</text>
	<line x1="684" y1="609" x2="696" y2="609" stroke="#000000" stroke-width="1"/>
	<text x="684" y="623.8" fill="#000000" font-family="Verdana" font-size="12">description</text>
</g>

<!-- Notes -->
<script type="text/ecmascript">
<![CDATA[
	function show_b425ce53(evt, text) {
		var pos = (evt.target.getAttribute("y") < 596) ? "bottom" : "top";
		var note = document.getElementById(pos + "_note_b425ce53");
		note.textContent = text;
		note.setAttributeNS(null, "visibility", "visible");
		document.getElementById(pos + "_overlay_b425ce53").setAttributeNS(null, "visibility", "visible");
	}
	function hide_b425ce53(evt) {
		document.getElementById("top_note_b425ce53").setAttributeNS(null, "visibility", "hidden");
		document.getElementById("top_overlay_b425ce53").setAttributeNS(null, "visibility", "hidden");
		document.getElementById("bottom_note_b425ce53").setAttributeNS(null, "visibility", "hidden");
		document.getElementById("bottom_overlay_b425ce53").setAttributeNS(null, "visibility", "hidden");
	}
]]>
</script>
<rect id="top_overlay_b425ce53" x="0" y="0" width="100%" height="40" fill="#b35806" stroke-width="0" opacity="0.9" visibility="hidden"/>
<text id="top_note_b425ce53" text-anchor="middle" x="518" y="24" fill="#f7f7f7" font-family="Verdana" font-size="14" visibility="hidden"></text>
<rect id="bottom_overlay_b425ce53" x="0" y="601" width="100%" height="40" fill="#b35806" stroke-width="0" opacity="0.9" visibility="hidden"/>
<text id="bottom_note_b425ce53" text-anchor="middle" x="518" y="625" fill="#f7f7f7" font-family="Verdana" font-size="14" visibility="hidden"></text>
</svg>