<?xml version="1.0" encoding="utf-8"?>
<!-- Generated by Mocodo 4.2.4 -->
<svg width="833" height="675" viewBox="0 0 833 675" xmlns="http://www.w3.org/2000/svg">
<rect x="0" y="0" width="833" height="675" fill="#ffffbf" stroke="none" stroke-width="0"/>

<!-- Association CARRIES1 -->
<g class="page_0_3e3d2b67 diagram_page" visibility="visible">
	<line x1="384" y1="177" x2="384" y2="51" stroke="#f46d43" stroke-width="2"/>
	<line x1="248" y1="51" x2="384" y2="51" stroke="#f46d43" stroke-width="2"/>
	<g>
		<path d="M405 26 a14 14 90 0 1 14 14 V51 h-70 V40 a14 14 90 0 1 14 -14" fill="#fdae61" stroke="#fdae61" stroke-width="0"/>
		<path d="M419 51 v11 a14 14 90 0 1 -14 14 H363 a14 14 90 0 1 -14 -14 V51 H70" fill="#fee08b" stroke="#fee08b" stroke-width="0"/>
		<rect x="349" y="26" width="70" height="50" fill="none" rx="14" stroke="#f46d43" stroke-width="2"/>
		<line x1="349" y1="51" x2="419" y2="51" stroke="#f46d43" stroke-width="1"/>
		<text x="357" y="43.75" fill="#000000" font-family="Verdana" font-size="12">CARRIES</text>
	</g>
	<text x="389" y="93" fill="#1a9850" font-family="Verdana" font-size="12">0,1</text>
	<text x="295" y="68" fill="#1a9850" font-family="Verdana" font-size="12">0,N</text>
</g>

<!-- Association DESCRIBES -->
<g class="page_0_3e3d2b67 diagram_page" visibility="visible">
	<line x1="523" y1="51" x2="637" y2="51" stroke="#f46d43" stroke-width="2"/>
	<line x1="768" y1="51" x2="637" y2="51" stroke="#f46d43" stroke-width="2"/>
	<g>
		<path d="M666 26 a14 14 90 0 1 14 14 V51 h-86 V40 a14 14 90 0 1 14 -14" fill="#fdae61" stroke="#fdae61" stroke-width="0"/>
		<path d="M680 51 v11 a14 14 90 0 1 -14 14 H608 a14 14 90 0 1 -14 -14 V51 H86" fill="#fee08b" stroke="#fee08b" stroke-width="0"/>
		<rect x="594" y="26" width="86" height="50" fill="none" rx="14" stroke="#f46d43" stroke-width="2"/>
		<line x1="594" y1="51" x2="680" y2="51" stroke="#f46d43" stroke-width="1"/>
		<text x="601" y="43.75" fill="#000000" font-family="Verdana" font-size="12">DESCRIBES</text>
	</g>
	<text x="567" y="68" fill="#1a9850" font-family="Verdana" font-size="12">1,1</text>
	<text x="685" y="68" fill="#1a9850" font-family="Verdana" font-size="12">0,N</text>
</g>

<!-- Association CARRIES -->
<g class="page_0_3e3d2b67 diagram_page" visibility="visible">
	<line x1="124" y1="177" x2="248" y2="177" stroke="#f46d43" stroke-width="2"/>
	<line x1="384" y1="177" x2="248" y2="177" stroke="#f46d43" stroke-width="2"/>
	<g>
		<path d="M269 152 a14 14 90 0 1 14 14 V177 h-70 V166 a14 14 90 0 1 14 -14" fill="#fdae61" stroke="#fdae61" stroke-width="0"/>
		<path d="M283 177 v11 a14 14 90 0 1 -14 14 H227 a14 14 90 0 1 -14 -14 V177 H70" fill="#fee08b" stroke="#fee08b" stroke-width="0"/>
		<rect x="213" y="152" width="70" height="50" fill="none" rx="14" stroke="#f46d43" stroke-width="2"/>
		<line x1="213" y1="177" x2="283" y2="177" stroke="#f46d43" stroke-width="1"/>
		<text x="221" y="169.75" fill="#000000" font-family="Verdana" font-size="12">CARRIES</text>
	</g>
	<text x="172" y="194" fill="#1a9850" font-family="Verdana" font-size="12">1,1</text>
	<text x="305" y="169" fill="#1a9850" font-family="Verdana" font-size="12">0,N</text>
</g>

<!-- Association OCCURS -->
<g class="page_0_3e3d2b67 diagram_page" visibility="visible">
	<line x1="384" y1="177" x2="523" y2="177" stroke="#f46d43" stroke-width="2"/>
	<line x1="523" y1="51" x2="523" y2="177" stroke="#f46d43" stroke-width="2"/>
	<g>
		<path d="M543 152 a14 14 90 0 1 14 14 V177 h-68 V166 a14 14 90 0 1 14 -14" fill="#fdae61" stroke="#fdae61" stroke-width="0"/>
		<path d="M557 177 v11 a14 14 90 0 1 -14 14 H503 a14 14 90 0 1 -14 -14 V177 H68" fill="#fee08b" stroke="#fee08b" stroke-width="0"/>
		<rect x="489" y="152" width="68" height="50" fill="none" rx="14" stroke="#f46d43" stroke-width="2"/>
		<line x1="489" y1="177" x2="557" y2="177" stroke="#f46d43" stroke-width="1"/>
		<text x="497" y="169.75" fill="#000000" font-family="Verdana" font-size="12">OCCURS</text>
	</g>
	<text x="441" y="194" fill="#1a9850" font-family="Verdana" font-size="12" onmouseover="show_3e3d2b67(evt,'happening')" onmouseout="hide_3e3d2b67(evt)" style="cursor: pointer;">1,1</text>
	<text x="528" y="110" fill="#1a9850" font-family="Verdana" font-size="12">0,N</text>
</g>

<!-- Association PARTICIPATES -->
<g class="page_0_3e3d2b67 diagram_page" visibility="visible">
	<line x1="248" y1="446" x2="124" y2="303" stroke="#f46d43" stroke-width="2"/>
	<line x1="124" y1="177" x2="124" y2="303" stroke="#f46d43" stroke-width="2"/>
	<g>
		<path d="M162 278 a14 14 90 0 1 14 14 V303 h-104 V292 a14 14 90 0 1 14 -14" fill="#fdae61" stroke="#fdae61" stroke-width="0"/>
		<path d="M176 303 v11 a14 14 90 0 1 -14 14 H86 a14 14 90 0 1 -14 -14 V303 H104" fill="#fee08b" stroke="#fee08b" stroke-width="0"/>
		<rect x="72" y="278" width="104" height="50" fill="none" rx="14" stroke="#f46d43" stroke-width="2"/>
		<line x1="72" y1="303" x2="176" y2="303" stroke="#f46d43" stroke-width="1"/>
		<text x="80" y="295.75" fill="#000000" font-family="Verdana" font-size="12">PARTICIPATES</text>
	</g>
	<text x="186" y="416.28" fill="#1a9850" font-family="Verdana" font-size="12">1,N</text>
	<text x="129" y="236" fill="#1a9850" font-family="Verdana" font-size="12">0,N</text>
</g>

<!-- Association ORGANIZE -->
<g class="page_0_3e3d2b67 diagram_page" visibility="visible">
	<line x1="248" y1="446" x2="248" y2="303" stroke="#f46d43" stroke-width="2"/>
	<line x1="384" y1="177" x2="248" y2="303" stroke="#f46d43" stroke-width="2"/>
	<g>
		<path d="M274 278 a14 14 90 0 1 14 14 V303 h-80 V292 a14 14 90 0 1 14 -14" fill="#fdae61" stroke="#fdae61" stroke-width="0"/>
		<path d="M288 303 v11 a14 14 90 0 1 -14 14 H222 a14 14 90 0 1 -14 -14 V303 H80" fill="#fee08b" stroke="#fee08b" stroke-width="0"/>
		<rect x="208" y="278" width="80" height="50" fill="none" rx="14" stroke="#f46d43" stroke-width="2"/>
		<line x1="208" y1="303" x2="288" y2="303" stroke="#f46d43" stroke-width="1"/>
		<text x="215" y="295.75" fill="#000000" font-family="Verdana" font-size="12">ORGANIZE</text>
	</g>
	<text x="253" y="345" fill="#1a9850" font-family="Verdana" font-size="12" onmouseover="show_3e3d2b67(evt,'organizer')" onmouseout="hide_3e3d2b67(evt)" style="cursor: pointer;">0,N</text>
	<text x="306" y="223.87" fill="#1a9850" font-family="Verdana" font-size="12">1,1</text>
</g>

<!-- Association REQUIRES -->
<g class="page_0_3e3d2b67 diagram_page" visibility="visible">
	<line x1="384" y1="177" x2="384" y2="303" stroke="#f46d43" stroke-width="2"/>
	<line x1="523" y1="303" x2="384" y2="303" stroke="#f46d43" stroke-width="2"/>
	<g>
		<path d="M409 278 a14 14 90 0 1 14 14 V303 h-78 V292 a14 14 90 0 1 14 -14" fill="#fdae61" stroke="#fdae61" stroke-width="0"/>
		<path d="M423 303 v11 a14 14 90 0 1 -14 14 H359 a14 14 90 0 1 -14 -14 V303 H78" fill="#fee08b" stroke="#fee08b" stroke-width="0"/>
		<rect x="345" y="278" width="78" height="50" fill="none" rx="14" stroke="#f46d43" stroke-width="2"/>
		<line x1="345" y1="303" x2="423" y2="303" stroke="#f46d43" stroke-width="1"/>
		<text x="352" y="295.75" fill="#000000" font-family="Verdana" font-size="12">REQUIRES</text>
	</g>
	<text x="389" y="270" fill="#1a9850" font-family="Verdana" font-size="12">0,1</text>
	<text x="442" y="320" fill="#1a9850" font-family="Verdana" font-size="12">1,1</text>
</g>

<!-- Association ENTITLES -->
<g class="page_0_3e3d2b67 diagram_page" visibility="visible">
	<line x1="248" y1="446" x2="124" y2="446" stroke="#f46d43" stroke-width="2"/>
	<line x1="32" y1="446" x2="124" y2="446" stroke="#f46d43" stroke-width="2"/>
	<g>
		<path d="M147 421 a14 14 90 0 1 14 14 V446 h-74 V435 a14 14 90 0 1 14 -14" fill="#fdae61" stroke="#fdae61" stroke-width="0"/>
		<path d="M161 446 v11 a14 14 90 0 1 -14 14 H101 a14 14 90 0 1 -14 -14 V446 H74" fill="#fee08b" stroke="#fee08b" stroke-width="0"/>
		<rect x="87" y="421" width="74" height="50" fill="none" rx="14" stroke="#f46d43" stroke-width="2"/>
		<line x1="87" y1="446" x2="161" y2="446" stroke="#f46d43" stroke-width="1"/>
		<text x="94" y="438.75" fill="#000000" font-family="Verdana" font-size="12">ENTITLES</text>
	</g>
	<text x="187" y="463" fill="#1a9850" font-family="Verdana" font-size="12">1,1</text>
	<text x="60" y="463" fill="#1a9850" font-family="Verdana" font-size="12">0,N</text>
</g>

<!-- Association REPORTS -->
<g class="page_0_3e3d2b67 diagram_page" visibility="visible">
	<line x1="248" y1="446" x2="384" y2="446" stroke="#f46d43" stroke-width="2"/>
	<line x1="523" y1="446" x2="384" y2="446" stroke="#f46d43" stroke-width="2"/>
	<g>
		<path d="M406 421 a14 14 90 0 1 14 14 V446 h-72 V435 a14 14 90 0 1 14 -14" fill="#fdae61" stroke="#fdae61" stroke-width="0"/>
		<path d="M420 446 v11 a14 14 90 0 1 -14 14 H362 a14 14 90 0 1 -14 -14 V446 H72" fill="#fee08b" stroke="#fee08b" stroke-width="0"/>
		<rect x="348" y="421" width="72" height="50" fill="none" rx="14" stroke="#f46d43" stroke-width="2"/>
		<line x1="348" y1="446" x2="420" y2="446" stroke="#f46d43" stroke-width="1"/>
		<text x="355" y="438.75" fill="#000000" font-family="Verdana" font-size="12">REPORTS</text>
	</g>
	<text x="288" y="463" fill="#1a9850" font-family="Verdana" font-size="12">0,N</text>
	<text x="443" y="463" fill="#1a9850" font-family="Verdana" font-size="12">1,1</text>
</g>

<!-- Association WRITES -->
<g class="page_0_3e3d2b67 diagram_page" visibility="visible">
	<line x1="248" y1="446" x2="248" y2="598" stroke="#f46d43" stroke-width="2"/>
	<line x1="124" y1="598" x2="248" y2="598" stroke="#f46d43" stroke-width="2"/>
	<g>
		<path d="M266 573 a14 14 90 0 1 14 14 V598 h-64 V587 a14 14 90 0 1 14 -14" fill="#fdae61" stroke="#fdae61" stroke-width="0"/>
		<path d="M280 598 v11 a14 14 90 0 1 -14 14 H230 a14 14 90 0 1 -14 -14 V598 H64" fill="#fee08b" stroke="#fee08b" stroke-width="0"/>
		<rect x="216" y="573" width="64" height="50" fill="none" rx="14" stroke="#f46d43" stroke-width="2"/>
		<line x1="216" y1="598" x2="280" y2="598" stroke="#f46d43" stroke-width="1"/>
		<text x="224" y="590.75" fill="#000000" font-family="Verdana" font-size="12">WRITES</text>
	</g>
	<text x="253" y="556" fill="#1a9850" font-family="Verdana" font-size="12">0,N</text>
	<text x="165" y="615" fill="#1a9850" font-family="Verdana" font-size="12">0,N</text>
</g>

<!-- Association DEFINES -->
<g class="page_0_3e3d2b67 diagram_page" visibility="visible">
	<line x1="523" y1="446" x2="523" y2="598" stroke="#f46d43" stroke-width="2"/>
	<line x1="384" y1="598" x2="523" y2="598" stroke="#f46d43" stroke-width="2"/>
	<g>
		<path d="M544 573 a14 14 90 0 1 14 14 V598 h-70 V587 a14 14 90 0 1 14 -14" fill="#fdae61" stroke="#fdae61" stroke-width="0"/>
		<path d="M558 598 v11 a14 14 90 0 1 -14 14 H502 a14 14 90 0 1 -14 -14 V598 H70" fill="#fee08b" stroke="#fee08b" stroke-width="0"/>
		<rect x="488" y="573" width="70" height="50" fill="none" rx="14" stroke="#f46d43" stroke-width="2"/>
		<line x1="488" y1="598" x2="558" y2="598" stroke="#f46d43" stroke-width="1"/>
		<text x="496" y="590.75" fill="#000000" font-family="Verdana" font-size="12">DEFINES</text>
	</g>
	<text x="528" y="497" fill="#1a9850" font-family="Verdana" font-size="12">1,1</text>
	<text x="461" y="615" fill="#1a9850" font-family="Verdana" font-size="12">1,N</text>
</g>

<!-- Entity EQUIPMENT -->
<g class="page_0_3e3d2b67 diagram_page" visibility="visible">
	<g>
		<rect x="206" y="17" width="84" height="25" fill="#a6d96a" stroke="none" stroke-width="0" opacity="1"/>
		<rect x="206" y="42" width="84" height="43" fill="#d9ef8b" stroke="none" stroke-width="0" opacity="1"/>
		<rect x="206" y="17" width="84" height="68" fill="none" stroke="#66bd63" stroke-width="2" opacity="1"/>
		<line x1="206" y1="42" x2="290" y2="42" stroke="#66bd63" stroke-width="1"/>
	</g>
	<text x="212" y="34.75" fill="#000000" font-family="Verdana" font-size="12">EQUIPMENT</text>
	<text x="211" y="59.8" fill="#000000" font-family="Verdana" font-size="12">id</text>
	<line x1="211" y1="62" x2="223" y2="62" stroke="#000000" stroke-width="1"/>
	<text x="211" y="76.8" fill="#000000" font-family="Verdana" font-size="12">name</text>
</g>

<!-- Entity AREA -->
<g class="page_0_3e3d2b67 diagram_page" visibility="visible">
	<g>
		<rect x="484" y="9" width="78" height="25" fill="#a6d96a" stroke="none" stroke-width="0" opacity="1"/>
		<rect x="484" y="34" width="78" height="59" fill="#d9ef8b" stroke="none" stroke-width="0" opacity="1"/>
		<rect x="484" y="9" width="78" height="84" fill="none" stroke="#66bd63" stroke-width="2" opacity="1"/>
		<line x1="484" y1="34" x2="562" y2="34" stroke="#66bd63" stroke-width="1"/>
	</g>
	<text x="507" y="26.75" fill="#000000" font-family="Verdana" font-size="12">AREA</text>
	<text x="489" y="51.8" fill="#000000" font-family="Verdana" font-size="12">id</text>
	<line x1="489" y1="54" x2="501" y2="54" stroke="#000000" stroke-width="1"/>
	<text x="489" y="68.8" fill="#000000" font-family="Verdana" font-size="12">name</text>
	<text x="489" y="85.8" fill="#000000" font-family="Verdana" font-size="12">description</text>
</g>

<!-- Entity INSTANCE_TYPE -->
<g class="page_0_3e3d2b67 diagram_page" visibility="visible">
	<g>
		<rect x="712" y="17" width="112" height="25" fill="#a6d96a" stroke="none" stroke-width="0" opacity="1"/>
		<rect x="712" y="42" width="112" height="43" fill="#d9ef8b" stroke="none" stroke-width="0" opacity="1"/>
		<rect x="712" y="17" width="112" height="68" fill="none" stroke="#66bd63" stroke-width="2" opacity="1"/>
		<line x1="712" y1="42" x2="824" y2="42" stroke="#66bd63" stroke-width="1"/>
	</g>
	<text x="718" y="34.75" fill="#000000" font-family="Verdana" font-size="12">INSTANCE_TYPE</text>
	<text x="717" y="59.8" fill="#000000" font-family="Verdana" font-size="12">id</text>
	<line x1="717" y1="62" x2="729" y2="62" stroke="#000000" stroke-width="1"/>
	<text x="717" y="76.8" fill="#000000" font-family="Verdana" font-size="12">description</text>
</g>

<!-- Entity CHARACTER -->
<g class="page_0_3e3d2b67 diagram_page" visibility="visible">
	<g>
		<rect x="81" y="135" width="86" height="25" fill="#a6d96a" stroke="none" stroke-width="0" opacity="1"/>
		<rect x="81" y="160" width="86" height="59" fill="#d9ef8b" stroke="none" stroke-width="0" opacity="1"/>
		<rect x="81" y="135" width="86" height="84" fill="none" stroke="#66bd63" stroke-width="2" opacity="1"/>
		<line x1="81" y1="160" x2="167" y2="160" stroke="#66bd63" stroke-width="1"/>
	</g>
	<text x="87" y="152.75" fill="#000000" font-family="Verdana" font-size="12">CHARACTER</text>
	<text x="86" y="177.8" fill="#000000" font-family="Verdana" font-size="12">id</text>
	<line x1="86" y1="180" x2="98" y2="180" stroke="#000000" stroke-width="1"/>
	<text x="86" y="194.8" fill="#000000" font-family="Verdana" font-size="12">archetype</text>
	<text x="86" y="211.8" fill="#000000" font-family="Verdana" font-size="12">level</text>
</g>

<!-- Entity EVENT -->
<g class="page_0_3e3d2b67 diagram_page" visibility="visible">
	<g>
		<rect x="332" y="101" width="104" height="25" fill="#a6d96a" stroke="none" stroke-width="0" opacity="1"/>
		<rect x="332" y="126" width="104" height="127" fill="#d9ef8b" stroke="none" stroke-width="0" opacity="1"/>
		<rect x="332" y="101" width="104" height="152" fill="none" stroke="#66bd63" stroke-width="2" opacity="1"/>
		<line x1="332" y1="126" x2="436" y2="126" stroke="#66bd63" stroke-width="1"/>
	</g>
	<text x="364" y="118.75" fill="#000000" font-family="Verdana" font-size="12">EVENT</text>
	<text x="337" y="143.8" fill="#000000" font-family="Verdana" font-size="12">id</text>
	<line x1="337" y1="146" x2="349" y2="146" stroke="#000000" stroke-width="1"/>
	<text x="337" y="160.8" fill="#000000" font-family="Verdana" font-size="12">name</text>
	<text x="337" y="177.8" fill="#000000" font-family="Verdana" font-size="12">date</text>
	<text x="337" y="194.8" fill="#000000" font-family="Verdana" font-size="12">listOfAttendees</text>
	<text x="337" y="211.8" fill="#000000" font-family="Verdana" font-size="12">location</text>
	<text x="337" y="228.8" fill="#000000" font-family="Verdana" font-size="12">levelMinimum</text>
	<text x="337" y="245.8" fill="#000000" font-family="Verdana" font-size="12">levelMaximum</text>
</g>

<!-- Entity PREREQUISITES -->
<g class="page_0_3e3d2b67 diagram_page" visibility="visible">
	<g>
		<rect x="468" y="261" width="110" height="25" fill="#a6d96a" stroke="none" stroke-width="0" opacity="1"/>
		<rect x="468" y="286" width="110" height="59" fill="#d9ef8b" stroke="none" stroke-width="0" opacity="1"/>
		<rect x="468" y="261" width="110" height="84" fill="none" stroke="#66bd63" stroke-width="2" opacity="1"/>
		<line x1="468" y1="286" x2="578" y2="286" stroke="#66bd63" stroke-width="1"/>
	</g>
	<text x="473" y="278.75" fill="#000000" font-family="Verdana" font-size="12">PREREQUISITES</text>
	<text x="473" y="303.8" fill="#000000" font-family="Verdana" font-size="12">id</text>
	<line x1="473" y1="306" x2="485" y2="306" stroke="#000000" stroke-width="1"/>
	<text x="473" y="320.8" fill="#000000" font-family="Verdana" font-size="12">levelMinimum</text>
	<text x="473" y="337.8" fill="#000000" font-family="Verdana" font-size="12">levelMaximum</text>
</g>

<!-- Entity RANK -->
<g class="page_0_3e3d2b67 diagram_page" visibility="visible">
	<g>
		<rect x="9" y="412" width="46" height="25" fill="#a6d96a" stroke="none" stroke-width="0" opacity="1"/>
		<rect x="9" y="437" width="46" height="43" fill="#d9ef8b" stroke="none" stroke-width="0" opacity="1"/>
		<rect x="9" y="412" width="46" height="68" fill="none" stroke="#66bd63" stroke-width="2" opacity="1"/>
		<line x1="9" y1="437" x2="55" y2="437" stroke="#66bd63" stroke-width="1"/>
	</g>
	<text x="15" y="429.75" fill="#000000" font-family="Verdana" font-size="12">RANK</text>
	<text x="14" y="454.8" fill="#000000" font-family="Verdana" font-size="12">id</text>
	<line x1="14" y1="457" x2="26" y2="457" stroke="#000000" stroke-width="1"/>
	<text x="14" y="471.8" fill="#000000" font-family="Verdana" font-size="12">name</text>
</g>

<!-- Entity USER -->
<g class="page_0_3e3d2b67 diagram_page" visibility="visible">
	<g>
		<rect x="213" y="353" width="70" height="25" fill="#a6d96a" stroke="none" stroke-width="0" opacity="1"/>
		<rect x="213" y="378" width="70" height="161" fill="#d9ef8b" stroke="none" stroke-width="0" opacity="1"/>
		<rect x="213" y="353" width="70" height="186" fill="none" stroke="#66bd63" stroke-width="2" opacity="1"/>
		<line x1="213" y1="378" x2="283" y2="378" stroke="#66bd63" stroke-width="1"/>
	</g>
	<text x="231" y="370.75" fill="#000000" font-family="Verdana" font-size="12">USER</text>
	<text x="218" y="395.8" fill="#000000" font-family="Verdana" font-size="12">id</text>
	<line x1="218" y1="398" x2="230" y2="398" stroke="#000000" stroke-width="1"/>
	<text x="218" y="412.8" fill="#000000" font-family="Verdana" font-size="12">nickname</text>
	<text x="218" y="429.8" fill="#000000" font-family="Verdana" font-size="12">email</text>
	<text x="218" y="446.8" fill="#000000" font-family="Verdana" font-size="12">password</text>
	<text x="218" y="463.8" fill="#000000" font-family="Verdana" font-size="12">rank</text>
	<text x="218" y="480.8" fill="#000000" font-family="Verdana" font-size="12">APIKey</text>
	<text x="218" y="497.8" fill="#000000" font-family="Verdana" font-size="12">fname</text>
	<text x="218" y="514.8" fill="#000000" font-family="Verdana" font-size="12">lname</text>
	<text x="218" y="531.8" fill="#000000" font-family="Verdana" font-size="12">birthDate</text>
</g>

<!-- Entity DENUNCIATION -->
<g class="page_0_3e3d2b67 diagram_page" visibility="visible">
	<g>
		<rect x="469" y="412" width="108" height="25" fill="#a6d96a" stroke="none" stroke-width="0" opacity="1"/>
		<rect x="469" y="437" width="108" height="43" fill="#d9ef8b" stroke="none" stroke-width="0" opacity="1"/>
		<rect x="469" y="412" width="108" height="68" fill="none" stroke="#66bd63" stroke-width="2" opacity="1"/>
		<line x1="469" y1="437" x2="577" y2="437" stroke="#66bd63" stroke-width="1"/>
	</g>
	<text x="475" y="429.75" fill="#000000" font-family="Verdana" font-size="12">DENUNCIATION</text>
	<text x="474" y="454.8" fill="#000000" font-family="Verdana" font-size="12">id</text>
	<line x1="474" y1="457" x2="486" y2="457" stroke="#000000" stroke-width="1"/>
	<text x="474" y="471.8" fill="#000000" font-family="Verdana" font-size="12">name</text>
</g>

<!-- Entity MESSAGE -->
<g class="page_0_3e3d2b67 diagram_page" visibility="visible">
	<g>
		<rect x="88" y="530" width="72" height="25" fill="#a6d96a" stroke="none" stroke-width="0" opacity="1"/>
		<rect x="88" y="555" width="72" height="111" fill="#d9ef8b" stroke="none" stroke-width="0" opacity="1"/>
		<rect x="88" y="530" width="72" height="136" fill="none" stroke="#66bd63" stroke-width="2" opacity="1"/>
		<line x1="88" y1="555" x2="160" y2="555" stroke="#66bd63" stroke-width="1"/>
	</g>
	<text x="94" y="547.75" fill="#000000" font-family="Verdana" font-size="12">MESSAGE</text>
	<text x="93" y="572.8" fill="#000000" font-family="Verdana" font-size="12">id</text>
	<line x1="93" y1="575" x2="105" y2="575" stroke="#000000" stroke-width="1"/>
	<text x="93" y="589.8" fill="#000000" font-family="Verdana" font-size="12">title</text>
	<text x="93" y="606.8" fill="#000000" font-family="Verdana" font-size="12">contents</text>
	<text x="93" y="623.8" fill="#000000" font-family="Verdana" font-size="12">date</text>
	<text x="93" y="640.8" fill="#000000" font-family="Verdana" font-size="12">sender</text>
	<text x="93" y="657.8" fill="#000000" font-family="Verdana" font-size="12">addressee</text>
</g>

<!-- Entity DENUNCIATION_TYPE -->
<g class="page_0_3e3d2b67 diagram_page" visibility="visible">
	<g>
		<rect x="312" y="564" width="144" height="25" fill="#a6d96a" stroke="none" stroke-width="0" opacity="1"/>
		<rect x="312" y="589" width="144" height="43" fill="#d9ef8b" stroke="none" stroke-width="0" opacity="1"/>
		<rect x="312" y="564" width="144" height="68" fill="none" stroke="#66bd63" stroke-width="2" opacity="1"/>
		<line x1="312" y1="589" x2="456" y2="589" stroke="#66bd63" stroke-width="1"/>
	</g>
	<text x="317" y="581.75" fill="#000000" font-family="Verdana" font-size="12">DENUNCIATION_TYPE</text>
	<text x="317" y="606.8" fill="#000000" font-family="Verdana" font-size="12">id</text>
	<line x1="317" y1="609" x2="329" y2="609" stroke="#000000" stroke-width="1"/>
	<text x="317" y="623.8" fill="#000000" font-family="Verdana" font-size="12">name</text>
</g>

<!-- Notes -->
<script type="text/ecmascript">
<![CDATA[
	function show_3e3d2b67(evt, text) {
		var pos = (evt.target.getAttribute("y") < 630) ? "bottom" : "top";
		var note = document.getElementById(pos + "_note_3e3d2b67");
		note.textContent = text;
		note.setAttributeNS(null, "visibility", "visible");
		document.getElementById(pos + "_overlay_3e3d2b67").setAttributeNS(null, "visibility", "visible");
	}
	function hide_3e3d2b67(evt) {
		document.getElementById("top_note_3e3d2b67").setAttributeNS(null, "visibility", "hidden");
		document.getElementById("top_overlay_3e3d2b67").setAttributeNS(null, "visibility", "hidden");
		document.getElementById("bottom_note_3e3d2b67").setAttributeNS(null, "visibility", "hidden");
		document.getElementById("bottom_overlay_3e3d2b67").setAttributeNS(null, "visibility", "hidden");
	}
]]>
</script>
<rect id="top_overlay_3e3d2b67" x="0" y="0" width="100%" height="40" fill="#d73027" stroke-width="0" opacity="0.9" visibility="hidden"/>
<text id="top_note_3e3d2b67" text-anchor="middle" x="416" y="24" fill="#ffffbf" font-family="Verdana" font-size="14" visibility="hidden"></text>
<rect id="bottom_overlay_3e3d2b67" x="0" y="635" width="100%" height="40" fill="#d73027" stroke-width="0" opacity="0.9" visibility="hidden"/>
<text id="bottom_note_3e3d2b67" text-anchor="middle" x="416" y="659" fill="#ffffbf" font-family="Verdana" font-size="14" visibility="hidden"></text>
</svg>